<svg xmlns="http://www.w3.org/2000/svg" xml:space="preserve" width="1500" height="125" data-id="lg_kLxYpWz4PU8XSHZxDW" data-version="1" viewBox="0 0 1500 125"><g data-padding="20"><g transform="translate(10 2.395)scale(.96169)"><rect width="404.964" height="71.19" x="170.322" y="-373.095" fill="none" rx="0" ry="0" transform="translate(478.02 400.55)"/><path d="M686.774 82.84h-6.46V60h-19.85v22.84h-6.45V42.2l-.92-6.61 7.37-.63v20h19.85V35.52l6.46-.56Zm24.53.53q-3.49 0-6.37-1.37-2.89-1.37-4.97-3.78-2.07-2.41-3.22-5.7t-1.15-7.1q0-3.82 1.1-7.08t3.15-5.63q2.05-2.38 4.96-3.72t6.5-1.34q3.5 0 6.4 1.34t4.98 3.72q2.07 2.37 3.24 5.63t1.17 7.08q0 3.81-1.12 7.1t-3.17 5.7-4.98 3.78q-2.92 1.37-6.52 1.37m9.8-17.1q0-2.55-.55-5.01t-1.75-4.4q-1.2-1.93-3.09-3.13t-4.53-1.2q-2.52 0-4.35 1.04t-2.99 2.77q-1.17 1.74-1.72 3.94-.55 2.21-.55 4.54 0 2.55.55 5.01.55 2.45 1.73 4.37 1.19 1.93 3.06 3.11t4.52 1.18q2.49 0 4.32-1.04 1.82-1.04 3.02-2.76 1.2-1.71 1.76-3.92.57-2.2.57-4.5m37.67-14.65-3.11 3.56q-1.23-1.1-2.92-1.8-1.68-.69-3.48-.69-2.64 0-4.5.99t-3.01 2.7q-1.15 1.7-1.69 3.95-.53 2.25-.53 4.74 0 2.58.49 4.93.48 2.35 1.65 4.14 1.17 1.8 3.1 2.85 1.94 1.06 4.84 1.06 2.42 0 4.11-.57 1.68-.57 2.6-1.2l2.27 4.45q-1.77 1.19-4.12 1.92-2.34.72-5.3.72-3.94 0-6.9-1.56t-4.93-4.16q-1.97-2.59-2.96-5.98t-.99-7.01q0-3.28.96-6.35t2.93-5.43q1.96-2.36 4.97-3.8 3.01-1.43 7.07-1.43 2.9 0 5.19.9 2.28.9 4.26 3.07m15.25-2.64v33.87h-5.98V49.61Zm-6.17-7.08v-6.3h6.36v6.3Zm25.07 14.35v26.59h-5.98V48.19l5.98-.63v5.76l1.92-3.37q.57-.38 1.45-.79t1.97-.74 2.35-.55 2.55-.22q2.49 0 4.2.8 1.72.81 2.79 2.32t1.53 3.65.46 4.79v23.63h-5.99V59.21q0-1.7-.24-2.93-.23-1.23-.81-2.03-.59-.8-1.56-1.18-.98-.38-2.43-.38-1.07 0-2.17.33-1.11.33-2.16.85-1.06.52-2.05 1.15t-1.81 1.23m52.51 19.5 3.43 3.02q-.97 1.01-2.14 1.86-1.16.85-2.58 1.47-1.42.61-3.13.94-1.72.33-3.83.33-4.19 0-7.15-1.48t-4.84-3.97q-1.87-2.49-2.74-5.7-.86-3.21-.86-6.71 0-2.24.41-4.42.4-2.19 1.22-4.18.82-1.98 2.05-3.68 1.23-1.71 2.87-2.93 1.64-1.23 3.7-1.94t4.55-.71q3.4 0 5.89 1.1 2.49 1.11 4.13 3.09t2.42 4.76q.79 2.77.79 6.14 0 .98-.06 2.14-.07 1.17-.19 2.21h-21.8q0 2.36.65 4.41.64 2.04 1.81 3.57 1.16 1.53 2.82 2.4 1.65.86 3.7.86 2.01 0 3.51-.3t2.57-.72q1.07-.43 1.75-.87Zm-13.29-13.39h11.5q.03-.35.04-.69.02-.35.02-.7 0-1.79-.41-3.3t-1.25-2.63q-.83-1.12-2.12-1.75t-3.06-.63q-2.11 0-3.6.68-1.5.67-2.52 1.73-1.03 1.05-1.64 2.31-.62 1.26-.93 2.4l-1.64 3.43Zm51.41-23.53-3.06 3.87q-2.14-1.26-4.11-1.85-1.97-.6-4.39-.6-1.71 0-3.33.34-1.62.35-2.86 1.12-1.25.77-2.02 2.02-.77 1.24-.77 3.04 0 1.76.94 3.05.95 1.3 2.48 2.32 1.52 1.02 3.49 1.89t4.02 1.83 4.01 2.11q1.97 1.15 3.5 2.71 1.53 1.55 2.47 3.63.95 2.08.95 4.92 0 2.33-.63 4.3t-1.75 3.54q-1.12 1.58-2.66 2.76t-3.37 1.97q-1.83.78-3.86 1.18-2.03.39-4.14.39-7.34-.12-12.79-3.5l2.87-4.72q.63.41 1.65.93t2.28.99 2.68.79q1.42.31 2.87.31 1.95 0 3.82-.48 1.88-.49 3.34-1.52 1.47-1.02 2.37-2.6.89-1.57.89-3.74 0-2.05-.94-3.58-.95-1.53-2.47-2.74-1.53-1.21-3.5-2.19t-4.02-1.95q-2.04-.98-4.01-2.05t-3.5-2.42q-1.53-1.36-2.47-3.11-.95-1.75-.95-4.11 0-3.05 1.26-5.4t3.33-3.95q2.06-1.61 4.67-2.44 2.62-.84 5.33-.84 6.71 0 12.38 3.78m31.18 36.92 3.43 3.02q-.97 1.01-2.14 1.86-1.16.85-2.58 1.47-1.42.61-3.13.94-1.72.33-3.83.33-4.19 0-7.15-1.48t-4.84-3.97q-1.87-2.49-2.74-5.7-.86-3.21-.86-6.71 0-2.24.41-4.42.4-2.19 1.22-4.18.82-1.98 2.05-3.68 1.23-1.71 2.87-2.93 1.64-1.23 3.7-1.94t4.55-.71q3.4 0 5.89 1.1 2.49 1.11 4.13 3.09t2.42 4.76q.79 2.77.79 6.14 0 .98-.06 2.14-.07 1.17-.19 2.21h-21.8q0 2.36.65 4.41.64 2.04 1.81 3.57 1.16 1.53 2.82 2.4 1.65.86 3.7.86 2.01 0 3.51-.3t2.57-.72q1.07-.43 1.75-.87Zm-13.29-13.39h11.5q.03-.35.04-.69.02-.35.02-.7 0-1.79-.41-3.3t-1.25-2.63q-.83-1.12-2.12-1.75t-3.06-.63q-2.11 0-3.6.68-1.5.67-2.52 1.73-1.03 1.05-1.64 2.31-.62 1.26-.93 2.4l-1.64 3.43Zm49.3 14.81.63 5.67h-6.62v-5.11l-2.96 3.53q-.54.41-1.23.79t-1.4.68q-.71.29-1.42.47-.71.17-1.31.17-2.36 0-4.52-.74-2.15-.74-3.78-2.17-1.62-1.44-2.58-3.56-.96-2.13-.96-4.9 0-2.93 1.18-5.09t3.03-3.59q1.84-1.43 4.11-2.14 2.26-.71 4.44-.71 1.79 0 3.16.19t2.32.44q1.1.28 1.92.63v-1.1q0-1.86-.22-3.34t-.9-2.5q-.67-1.03-1.95-1.56-1.28-.54-3.39-.54-1.7 0-3.27.24-1.58.23-2.81.52-1.45.34-2.67.72l-2.27-4.22q1.38-.63 3.15-1.13 1.51-.45 3.59-.81t4.6-.36q3.62 0 5.98.98 2.37.97 3.72 2.74 1.35 1.76 1.89 4.23.54 2.48.54 5.5Zm-5.99-2.97v-8.15q-.88-.13-1.89-.26-.85-.09-1.95-.18-1.1-.1-2.3-.1-1.77 0-3.23.35-1.47.34-2.54 1.12-1.07.77-1.67 2-.59 1.22-.59 2.99 0 1.42.47 2.58.47 1.17 1.29 2.02t1.94 1.3q1.12.46 2.41.46.6 0 1.27-.17.68-.18 1.36-.46.67-.28 1.35-.66t1.28-.76q1.41-.91 2.8-2.08m31.85-21.23q-1.26 0-2.49.51-1.23.5-2.36 1.35-1.14.85-2.15 1.99-1 1.13-1.85 2.39v23.63h-5.99V48.19l5.99-.63v7.08l3.15-5.51q.41-.25 1.02-.52t1.4-.47q.79-.21 1.69-.35.89-.14 1.84-.14 1.42 0 2.38.25t1.43.47l-.31 5.23q-.48-.15-1.42-.39-.95-.24-2.33-.24m32.61-1.35-3.12 3.56q-1.23-1.1-2.91-1.8-1.69-.69-3.48-.69-2.65 0-4.51.99t-3.01 2.7q-1.15 1.7-1.68 3.95-.54 2.25-.54 4.74 0 2.58.49 4.93t1.66 4.14q1.16 1.8 3.1 2.85 1.94 1.06 4.83 1.06 2.43 0 4.11-.57 1.69-.57 2.6-1.2l2.27 4.45q-1.76 1.19-4.11 1.92-2.35.72-5.31.72-3.94 0-6.9-1.56t-4.93-4.16q-1.96-2.59-2.96-5.98-.99-3.39-.99-7.01 0-3.28.96-6.35t2.93-5.43 4.98-3.8q3.01-1.43 7.07-1.43 2.9 0 5.18.9 2.29.9 4.27 3.07m15.25 4.99v26.24h-5.99v-44.1l-.63-6.3 6.62-.63v21.1l2.8-3.62q1.23-.69 2.93-1.17 1.7-.47 3.72-.47 4.72 0 7.24 3.15t2.52 9.04v23h-5.98V60.51q0-2.11-.37-3.59-.36-1.48-1.02-2.42-.66-.95-1.64-1.37-.97-.43-2.2-.43t-2.4.3q-1.16.3-2.2.82t-1.91 1.23q-.86.71-1.49 1.56"/><path fill="#fff" stroke="#000" stroke-width="4.44" d="M557.514.231a62.269 62.269 0 1 0 0 124.538 62.269 62.269 0 1 0 0-124.538Z"/><path d="M575.252 70.028a59 59 0 0 0-2.608-4.626c-4.419 6.85-11.806 12.98-21.169 16.798l3.127 7.693c9.688-3.947 16.892-11.269 20.65-19.86"/><path d="M556.094 79.42a58 58 0 0 0 3.712-2.247c-8.237-3.953-15.86-12.195-20.314-23.14l-7.693 3.139c4.601 11.316 13.83 19.252 24.296 22.255"/><path d="m568.432 44.764-3.133-7.693c-11.022 4.484-18.827 13.357-22.007 23.482a56 56 0 0 0 2.43 3.658c4.1-7.906 12.154-15.146 22.71-19.447"/><path d="M584.845 69.61c-4.277-10.509-12.537-18.102-22.07-21.536a58 58 0 0 0-3.978 2.549c7.475 4.26 14.248 12.048 18.35 22.12Zm-25.399-10.19a4.785 4.785 0 1 0 0 9.57 4.785 4.785 0 1 0 0-9.57"/></g><path fill="transparent" stroke="transparent" d="M511.187 0h522v125h-522z"/></g></svg>